<svg width="302" height="155" viewBox="0 0 302 155" fill="none" xmlns="http://www.w3.org/2000/svg">
<g clip-path="url(#clip0_0_2766)">
<path d="M44.6929 42.75C44.5529 43.08 44.4429 43.385 44.3629 43.665C44.2929 43.945 44.2579 44.2 44.2579 44.43C44.2579 44.69 44.2879 44.915 44.3479 45.105C44.4179 45.295 44.4879 45.48 44.5579 45.66C44.6279 45.83 44.6629 46.035 44.6629 46.275C44.6629 46.585 44.5479 46.845 44.3179 47.055C44.0979 47.265 43.8029 47.37 43.4329 47.37C43.0529 47.37 42.7529 47.25 42.5329 47.01C42.3229 46.77 42.2179 46.435 42.2179 46.005C42.2179 45.695 42.2829 45.345 42.4129 44.955C42.5529 44.565 42.7379 44.175 42.9679 43.785C43.1979 43.395 43.4629 43.05 43.7629 42.75H44.6929ZM41.6779 42.75C41.5379 43.08 41.4279 43.385 41.3479 43.665C41.2779 43.945 41.2429 44.2 41.2429 44.43C41.2429 44.69 41.2729 44.915 41.3329 45.105C41.4029 45.295 41.4729 45.48 41.5429 45.66C41.6129 45.83 41.6479 46.035 41.6479 46.275C41.6479 46.585 41.5329 46.845 41.3029 47.055C41.0829 47.265 40.7879 47.37 40.4179 47.37C40.0379 47.37 39.7379 47.25 39.5179 47.01C39.3079 46.77 39.2029 46.435 39.2029 46.005C39.2029 45.695 39.2679 45.345 39.3979 44.955C39.5379 44.565 39.7229 44.175 39.9529 43.785C40.1829 43.395 40.4479 43.05 40.7479 42.75H41.6779ZM53.2615 45.03H48.3115V47.775H53.0215V49.455H48.3115V52.32H53.4415L53.3065 54H46.4065V43.35H53.2615V45.03ZM54.768 54V46.425H56.598L56.508 48.285C56.818 47.595 57.218 47.095 57.708 46.785C58.208 46.465 58.743 46.305 59.313 46.305C59.863 46.305 60.348 46.455 60.768 46.755C61.188 47.055 61.488 47.525 61.668 48.165C61.988 47.535 62.408 47.07 62.928 46.77C63.458 46.46 64.003 46.305 64.563 46.305C65.403 46.305 66.038 46.6 66.468 47.19C66.908 47.77 67.123 48.605 67.113 49.695L67.083 54H65.253L65.283 49.755C65.283 49.205 65.183 48.78 64.983 48.48C64.783 48.17 64.473 48.015 64.053 48.015C63.763 48.015 63.483 48.11 63.213 48.3C62.953 48.48 62.718 48.795 62.508 49.245C62.308 49.695 62.148 50.31 62.028 51.09C61.908 51.86 61.843 52.83 61.833 54H60.018V49.755C60.018 49.205 59.923 48.78 59.733 48.48C59.543 48.17 59.238 48.015 58.818 48.015C58.528 48.015 58.248 48.11 57.978 48.3C57.718 48.48 57.483 48.795 57.273 49.245C57.073 49.695 56.908 50.31 56.778 51.09C56.658 51.86 56.593 52.83 56.583 54H54.768ZM68.9623 57V46.425H70.8073L70.7473 47.775C71.0173 47.305 71.3673 46.945 71.7973 46.695C72.2273 46.435 72.7273 46.305 73.2973 46.305C73.9673 46.305 74.5323 46.46 74.9923 46.77C75.4523 47.08 75.8023 47.505 76.0423 48.045C76.2823 48.585 76.4023 49.2 76.4023 49.89C76.4023 50.73 76.2373 51.47 75.9073 52.11C75.5773 52.75 75.1223 53.25 74.5423 53.61C73.9723 53.96 73.3223 54.135 72.5923 54.135C72.2123 54.135 71.8673 54.07 71.5573 53.94C71.2473 53.81 70.9873 53.635 70.7773 53.415L70.7923 54V57H68.9623ZM72.4573 52.53C73.0873 52.53 73.5873 52.29 73.9573 51.81C74.3273 51.33 74.5123 50.71 74.5123 49.95C74.5123 49.31 74.3723 48.815 74.0923 48.465C73.8123 48.105 73.4273 47.925 72.9373 47.925C72.5273 47.925 72.1623 48.04 71.8423 48.27C71.5223 48.49 71.2673 48.805 71.0773 49.215C70.8873 49.615 70.7923 50.08 70.7923 50.61C70.7923 51.2 70.9423 51.67 71.2423 52.02C71.5423 52.36 71.9473 52.53 72.4573 52.53ZM81.5407 46.305C82.6707 46.305 83.5557 46.645 84.1957 47.325C84.8457 47.995 85.1707 48.905 85.1707 50.055C85.1707 50.835 85.0057 51.535 84.6757 52.155C84.3557 52.765 83.9007 53.25 83.3107 53.61C82.7207 53.96 82.0357 54.135 81.2557 54.135C80.1257 54.135 79.2357 53.8 78.5857 53.13C77.9457 52.46 77.6257 51.545 77.6257 50.385C77.6257 49.605 77.7857 48.91 78.1057 48.3C78.4357 47.68 78.8907 47.195 79.4707 46.845C80.0607 46.485 80.7507 46.305 81.5407 46.305ZM81.3157 52.53C81.9057 52.53 82.3807 52.305 82.7407 51.855C83.1007 51.405 83.2807 50.805 83.2807 50.055C83.2807 49.375 83.1207 48.85 82.8007 48.48C82.4907 48.11 82.0607 47.925 81.5107 47.925C80.9007 47.925 80.4157 48.15 80.0557 48.6C79.6957 49.05 79.5157 49.645 79.5157 50.385C79.5157 51.065 79.6707 51.595 79.9807 51.975C80.3007 52.345 80.7457 52.53 81.3157 52.53ZM96.7711 46.425H98.5861L95.9011 54H93.6511L92.1661 48.945L90.3961 54H88.1461L85.7611 46.425H87.6661L89.3461 52.215L91.3261 46.425H93.1261L94.7911 52.26L96.7711 46.425ZM102.885 54.135C102.065 54.135 101.355 53.985 100.755 53.685C100.165 53.375 99.7099 52.935 99.3899 52.365C99.0699 51.795 98.9099 51.115 98.9099 50.325C98.9099 49.535 99.0749 48.84 99.4049 48.24C99.7349 47.63 100.18 47.155 100.74 46.815C101.31 46.475 101.955 46.305 102.675 46.305C103.845 46.305 104.705 46.705 105.255 47.505C105.815 48.295 106.01 49.39 105.84 50.79H100.77C100.81 51.32 101.025 51.745 101.415 52.065C101.805 52.385 102.34 52.545 103.02 52.545C103.34 52.545 103.66 52.475 103.98 52.335C104.31 52.195 104.59 51.98 104.82 51.69L105.885 52.77C105.545 53.2 105.13 53.535 104.64 53.775C104.16 54.015 103.575 54.135 102.885 54.135ZM102.705 47.685C102.195 47.685 101.775 47.845 101.445 48.165C101.115 48.485 100.905 48.915 100.815 49.455H104.265C104.285 48.835 104.15 48.385 103.86 48.105C103.57 47.825 103.185 47.685 102.705 47.685ZM112.274 48.195C112.074 48.125 111.819 48.09 111.509 48.09C110.969 48.09 110.534 48.29 110.204 48.69C109.874 49.08 109.629 49.71 109.469 50.58C109.319 51.44 109.244 52.58 109.244 54H107.429V49.11L107.414 46.425H109.244L109.154 48.54C109.414 47.73 109.774 47.155 110.234 46.815C110.704 46.475 111.204 46.305 111.734 46.305C111.894 46.305 112.044 46.315 112.184 46.335C112.324 46.355 112.454 46.385 112.574 46.425L112.274 48.195ZM116.801 54.135C115.981 54.135 115.271 53.985 114.671 53.685C114.081 53.375 113.626 52.935 113.306 52.365C112.986 51.795 112.826 51.115 112.826 50.325C112.826 49.535 112.991 48.84 113.321 48.24C113.651 47.63 114.096 47.155 114.656 46.815C115.226 46.475 115.871 46.305 116.591 46.305C117.761 46.305 118.621 46.705 119.171 47.505C119.731 48.295 119.926 49.39 119.756 50.79H114.686C114.726 51.32 114.941 51.745 115.331 52.065C115.721 52.385 116.256 52.545 116.936 52.545C117.256 52.545 117.576 52.475 117.896 52.335C118.226 52.195 118.506 51.98 118.736 51.69L119.801 52.77C119.461 53.2 119.046 53.535 118.556 53.775C118.076 54.015 117.491 54.135 116.801 54.135ZM116.621 47.685C116.111 47.685 115.691 47.845 115.361 48.165C115.031 48.485 114.821 48.915 114.731 49.455H118.181C118.201 48.835 118.066 48.385 117.776 48.105C117.486 47.825 117.101 47.685 116.621 47.685ZM128.41 42.9V54H126.55L126.61 52.68C126.34 53.15 125.99 53.51 125.56 53.76C125.13 54.01 124.63 54.135 124.06 54.135C123.4 54.135 122.84 53.985 122.38 53.685C121.92 53.375 121.57 52.95 121.33 52.41C121.09 51.87 120.97 51.25 120.97 50.55C120.97 49.71 121.135 48.975 121.465 48.345C121.795 47.705 122.245 47.205 122.815 46.845C123.395 46.485 124.045 46.305 124.765 46.305C125.145 46.305 125.49 46.37 125.8 46.5C126.12 46.63 126.385 46.81 126.595 47.04L126.58 46.425V42.9H128.41ZM124.9 47.925C124.28 47.925 123.785 48.16 123.415 48.63C123.045 49.1 122.86 49.715 122.86 50.475C122.86 51.125 123 51.63 123.28 51.99C123.56 52.35 123.945 52.53 124.435 52.53C124.835 52.53 125.195 52.415 125.515 52.185C125.845 51.955 126.105 51.635 126.295 51.225C126.485 50.815 126.58 50.345 126.58 49.815C126.58 49.225 126.43 48.765 126.13 48.435C125.83 48.095 125.42 47.925 124.9 47.925ZM137.211 54.135C136.301 54.135 135.591 53.885 135.081 53.385C134.581 52.885 134.336 52.23 134.346 51.42L134.406 47.955H133.116V46.425H134.436L134.451 44.865H136.281L136.251 46.425H138.726V47.955H136.236L136.191 51.225C136.181 51.635 136.281 51.96 136.491 52.2C136.711 52.43 137.036 52.545 137.466 52.545C137.696 52.545 137.911 52.515 138.111 52.455C138.311 52.395 138.521 52.285 138.741 52.125L139.281 53.535C139.051 53.735 138.756 53.885 138.396 53.985C138.036 54.085 137.641 54.135 137.211 54.135ZM143.549 54.135C142.729 54.135 142.019 53.985 141.419 53.685C140.829 53.375 140.374 52.935 140.054 52.365C139.734 51.795 139.574 51.115 139.574 50.325C139.574 49.535 139.739 48.84 140.069 48.24C140.399 47.63 140.844 47.155 141.404 46.815C141.974 46.475 142.619 46.305 143.339 46.305C144.509 46.305 145.369 46.705 145.919 47.505C146.479 48.295 146.674 49.39 146.504 50.79H141.434C141.474 51.32 141.689 51.745 142.079 52.065C142.469 52.385 143.004 52.545 143.684 52.545C144.004 52.545 144.324 52.475 144.644 52.335C144.974 52.195 145.254 51.98 145.484 51.69L146.549 52.77C146.209 53.2 145.794 53.535 145.304 53.775C144.824 54.015 144.239 54.135 143.549 54.135ZM143.369 47.685C142.859 47.685 142.439 47.845 142.109 48.165C141.779 48.485 141.569 48.915 141.479 49.455H144.929C144.949 48.835 144.814 48.385 144.524 48.105C144.234 47.825 143.849 47.685 143.369 47.685ZM155.159 46.455V54H153.299L153.359 52.68C153.089 53.14 152.734 53.5 152.294 53.76C151.864 54.01 151.369 54.135 150.809 54.135C150.149 54.135 149.589 53.985 149.129 53.685C148.669 53.375 148.319 52.95 148.079 52.41C147.839 51.87 147.719 51.25 147.719 50.55C147.719 49.71 147.884 48.975 148.214 48.345C148.544 47.705 148.994 47.205 149.564 46.845C150.144 46.485 150.794 46.305 151.514 46.305C151.994 46.305 152.419 46.41 152.789 46.62C153.159 46.82 153.444 47.09 153.644 47.43L153.824 46.455H155.159ZM151.649 47.925C151.029 47.925 150.534 48.16 150.164 48.63C149.794 49.1 149.609 49.715 149.609 50.475C149.609 51.125 149.749 51.63 150.029 51.99C150.309 52.35 150.694 52.53 151.184 52.53C151.584 52.53 151.944 52.415 152.264 52.185C152.594 51.955 152.854 51.635 153.044 51.225C153.234 50.815 153.329 50.345 153.329 49.815C153.329 49.225 153.179 48.765 152.879 48.435C152.579 48.095 152.169 47.925 151.649 47.925ZM157.102 54V46.425H158.932L158.842 48.285C159.152 47.595 159.552 47.095 160.042 46.785C160.542 46.465 161.077 46.305 161.647 46.305C162.197 46.305 162.682 46.455 163.102 46.755C163.522 47.055 163.822 47.525 164.002 48.165C164.322 47.535 164.742 47.07 165.262 46.77C165.792 46.46 166.337 46.305 166.897 46.305C167.737 46.305 168.372 46.6 168.802 47.19C169.242 47.77 169.457 48.605 169.447 49.695L169.417 54H167.587L167.617 49.755C167.617 49.205 167.517 48.78 167.317 48.48C167.117 48.17 166.807 48.015 166.387 48.015C166.097 48.015 165.817 48.11 165.547 48.3C165.287 48.48 165.052 48.795 164.842 49.245C164.642 49.695 164.482 50.31 164.362 51.09C164.242 51.86 164.177 52.83 164.167 54H162.352V49.755C162.352 49.205 162.257 48.78 162.067 48.48C161.877 48.17 161.572 48.015 161.152 48.015C160.862 48.015 160.582 48.11 160.312 48.3C160.052 48.48 159.817 48.795 159.607 49.245C159.407 49.695 159.242 50.31 159.112 51.09C158.992 51.86 158.927 52.83 158.917 54H157.102ZM173.951 54.135C172.911 54.135 172.116 53.94 171.566 53.55C171.016 53.15 170.696 52.595 170.606 51.885L172.151 51.51C172.211 51.89 172.386 52.185 172.676 52.395C172.966 52.595 173.381 52.695 173.921 52.695C174.361 52.695 174.691 52.625 174.911 52.485C175.141 52.345 175.256 52.155 175.256 51.915C175.256 51.675 175.131 51.49 174.881 51.36C174.641 51.23 174.266 51.115 173.756 51.015C173.186 50.905 172.696 50.765 172.286 50.595C171.886 50.425 171.576 50.195 171.356 49.905C171.146 49.605 171.041 49.215 171.041 48.735C171.041 48.275 171.171 47.865 171.431 47.505C171.691 47.135 172.046 46.845 172.496 46.635C172.956 46.415 173.481 46.305 174.071 46.305C174.861 46.305 175.506 46.49 176.006 46.86C176.516 47.23 176.821 47.705 176.921 48.285L175.406 48.69C175.336 48.4 175.186 48.175 174.956 48.015C174.726 47.845 174.416 47.76 174.026 47.76C173.636 47.76 173.336 47.84 173.126 48C172.926 48.16 172.826 48.36 172.826 48.6C172.826 48.84 172.941 49.03 173.171 49.17C173.411 49.3 173.816 49.425 174.386 49.545C174.916 49.655 175.376 49.795 175.766 49.965C176.166 50.125 176.481 50.35 176.711 50.64C176.941 50.92 177.056 51.3 177.056 51.78C177.056 52.25 176.921 52.665 176.651 53.025C176.391 53.375 176.026 53.65 175.556 53.85C175.086 54.04 174.551 54.135 173.951 54.135ZM185.394 54.135C184.244 54.135 183.334 53.805 182.664 53.145C181.994 52.475 181.659 51.545 181.659 50.355C181.659 49.555 181.824 48.85 182.154 48.24C182.484 47.63 182.944 47.155 183.534 46.815C184.124 46.475 184.804 46.305 185.574 46.305C186.214 46.305 186.774 46.43 187.254 46.68C187.734 46.93 188.124 47.32 188.424 47.85L187.119 48.84C186.929 48.52 186.709 48.29 186.459 48.15C186.219 48.01 185.924 47.94 185.574 47.94C184.984 47.94 184.499 48.16 184.119 48.6C183.749 49.04 183.564 49.62 183.564 50.34C183.564 51.04 183.729 51.58 184.059 51.96C184.399 52.33 184.884 52.515 185.514 52.515C185.844 52.515 186.149 52.44 186.429 52.29C186.719 52.14 186.959 51.905 187.149 51.585L188.424 52.605C188.084 53.155 187.654 53.55 187.134 53.79C186.614 54.02 186.034 54.135 185.394 54.135ZM194.276 48.195C194.076 48.125 193.821 48.09 193.511 48.09C192.971 48.09 192.536 48.29 192.206 48.69C191.876 49.08 191.631 49.71 191.471 50.58C191.321 51.44 191.246 52.58 191.246 54H189.431V49.11L189.416 46.425H191.246L191.156 48.54C191.416 47.73 191.776 47.155 192.236 46.815C192.706 46.475 193.206 46.305 193.736 46.305C193.896 46.305 194.046 46.315 194.186 46.335C194.326 46.355 194.456 46.385 194.576 46.425L194.276 48.195ZM198.803 54.135C197.983 54.135 197.273 53.985 196.673 53.685C196.083 53.375 195.628 52.935 195.308 52.365C194.988 51.795 194.828 51.115 194.828 50.325C194.828 49.535 194.993 48.84 195.323 48.24C195.653 47.63 196.098 47.155 196.658 46.815C197.228 46.475 197.873 46.305 198.593 46.305C199.763 46.305 200.623 46.705 201.173 47.505C201.733 48.295 201.928 49.39 201.758 50.79H196.688C196.728 51.32 196.943 51.745 197.333 52.065C197.723 52.385 198.258 52.545 198.938 52.545C199.258 52.545 199.578 52.475 199.898 52.335C200.228 52.195 200.508 51.98 200.738 51.69L201.803 52.77C201.463 53.2 201.048 53.535 200.558 53.775C200.078 54.015 199.493 54.135 198.803 54.135ZM198.623 47.685C198.113 47.685 197.693 47.845 197.363 48.165C197.033 48.485 196.823 48.915 196.733 49.455H200.183C200.203 48.835 200.068 48.385 199.778 48.105C199.488 47.825 199.103 47.685 198.623 47.685ZM210.412 46.455V54H208.552L208.612 52.68C208.342 53.14 207.987 53.5 207.547 53.76C207.117 54.01 206.622 54.135 206.062 54.135C205.402 54.135 204.842 53.985 204.382 53.685C203.922 53.375 203.572 52.95 203.332 52.41C203.092 51.87 202.972 51.25 202.972 50.55C202.972 49.71 203.137 48.975 203.467 48.345C203.797 47.705 204.247 47.205 204.817 46.845C205.397 46.485 206.047 46.305 206.767 46.305C207.247 46.305 207.672 46.41 208.042 46.62C208.412 46.82 208.697 47.09 208.897 47.43L209.077 46.455H210.412ZM206.902 47.925C206.282 47.925 205.787 48.16 205.417 48.63C205.047 49.1 204.862 49.715 204.862 50.475C204.862 51.125 205.002 51.63 205.282 51.99C205.562 52.35 205.947 52.53 206.437 52.53C206.837 52.53 207.197 52.415 207.517 52.185C207.847 51.955 208.107 51.635 208.297 51.225C208.487 50.815 208.582 50.345 208.582 49.815C208.582 49.225 208.432 48.765 208.132 48.435C207.832 48.095 207.422 47.925 206.902 47.925ZM215.566 54.135C214.656 54.135 213.946 53.885 213.436 53.385C212.936 52.885 212.691 52.23 212.701 51.42L212.761 47.955H211.471V46.425H212.791L212.806 44.865H214.636L214.606 46.425H217.081V47.955H214.591L214.546 51.225C214.536 51.635 214.636 51.96 214.846 52.2C215.066 52.43 215.391 52.545 215.821 52.545C216.051 52.545 216.266 52.515 216.466 52.455C216.666 52.395 216.876 52.285 217.096 52.125L217.636 53.535C217.406 53.735 217.111 53.885 216.751 53.985C216.391 54.085 215.996 54.135 215.566 54.135ZM221.903 54.135C221.083 54.135 220.373 53.985 219.773 53.685C219.183 53.375 218.728 52.935 218.408 52.365C218.088 51.795 217.928 51.115 217.928 50.325C217.928 49.535 218.093 48.84 218.423 48.24C218.753 47.63 219.198 47.155 219.758 46.815C220.328 46.475 220.973 46.305 221.693 46.305C222.863 46.305 223.723 46.705 224.273 47.505C224.833 48.295 225.028 49.39 224.858 50.79H219.788C219.828 51.32 220.043 51.745 220.433 52.065C220.823 52.385 221.358 52.545 222.038 52.545C222.358 52.545 222.678 52.475 222.998 52.335C223.328 52.195 223.608 51.98 223.838 51.69L224.903 52.77C224.563 53.2 224.148 53.535 223.658 53.775C223.178 54.015 222.593 54.135 221.903 54.135ZM221.723 47.685C221.213 47.685 220.793 47.845 220.463 48.165C220.133 48.485 219.923 48.915 219.833 49.455H223.283C223.303 48.835 223.168 48.385 222.878 48.105C222.588 47.825 222.203 47.685 221.723 47.685ZM233.29 54.135C232.38 54.135 231.67 53.885 231.16 53.385C230.66 52.885 230.415 52.23 230.425 51.42L230.485 47.955H229.195V46.425H230.515L230.53 44.865H232.36L232.33 46.425H234.805V47.955H232.315L232.27 51.225C232.26 51.635 232.36 51.96 232.57 52.2C232.79 52.43 233.115 52.545 233.545 52.545C233.775 52.545 233.99 52.515 234.19 52.455C234.39 52.395 234.6 52.285 234.82 52.125L235.36 53.535C235.13 53.735 234.835 53.885 234.475 53.985C234.115 54.085 233.72 54.135 233.29 54.135ZM241.02 48.195C240.82 48.125 240.565 48.09 240.255 48.09C239.715 48.09 239.28 48.29 238.95 48.69C238.62 49.08 238.375 49.71 238.215 50.58C238.065 51.44 237.99 52.58 237.99 54H236.175V49.11L236.16 46.425H237.99L237.9 48.54C238.16 47.73 238.52 47.155 238.98 46.815C239.45 46.475 239.95 46.305 240.48 46.305C240.64 46.305 240.79 46.315 240.93 46.335C241.07 46.355 241.2 46.385 241.32 46.425L241.02 48.195ZM244.698 54.135C243.858 54.135 243.223 53.85 242.793 53.28C242.373 52.71 242.168 51.92 242.178 50.91L242.208 46.425H244.038L244.008 50.745C243.998 51.265 244.088 51.675 244.278 51.975C244.468 52.275 244.768 52.425 245.178 52.425C245.498 52.425 245.793 52.33 246.063 52.14C246.343 51.95 246.583 51.63 246.783 51.18C246.983 50.72 247.138 50.105 247.248 49.335C247.368 48.555 247.428 47.585 247.428 46.425H249.198V54H247.353L247.458 52.275C247.158 52.885 246.768 53.35 246.288 53.67C245.818 53.98 245.288 54.135 244.698 54.135ZM253.335 54.135C252.615 54.135 252.07 53.94 251.7 53.55C251.33 53.16 251.145 52.605 251.145 51.885V42.9H252.975V51.735C252.975 52.275 253.225 52.545 253.725 52.545C253.975 52.545 254.195 52.485 254.385 52.365L254.835 53.7C254.675 53.82 254.46 53.92 254.19 54C253.92 54.09 253.635 54.135 253.335 54.135ZM258.107 57.15C257.657 57.15 257.177 57.105 256.667 57.015C256.167 56.925 255.752 56.775 255.422 56.565L255.872 54.975C256.212 55.145 256.572 55.28 256.952 55.38C257.332 55.48 257.747 55.53 258.197 55.53C259.077 55.53 259.702 55.32 260.072 54.9C260.442 54.49 260.647 53.83 260.687 52.92L260.747 51.93C260.447 52.57 260.047 53.06 259.547 53.4C259.057 53.73 258.507 53.895 257.897 53.895C257.047 53.895 256.407 53.61 255.977 53.04C255.547 52.47 255.337 51.68 255.347 50.67L255.377 46.425H257.207L257.177 50.52C257.177 51.04 257.267 51.45 257.447 51.75C257.637 52.04 257.942 52.185 258.362 52.185C258.822 52.185 259.222 52.01 259.562 51.66C259.902 51.3 260.167 50.705 260.357 49.875C260.557 49.035 260.662 47.885 260.672 46.425H262.442V52.695C262.442 54.215 262.062 55.335 261.302 56.055C260.542 56.785 259.477 57.15 258.107 57.15ZM45.493 71.455V79H43.633L43.693 77.68C43.423 78.14 43.068 78.5 42.628 78.76C42.198 79.01 41.703 79.135 41.143 79.135C40.483 79.135 39.923 78.985 39.463 78.685C39.003 78.375 38.653 77.95 38.413 77.41C38.173 76.87 38.053 76.25 38.053 75.55C38.053 74.71 38.218 73.975 38.548 73.345C38.878 72.705 39.328 72.205 39.898 71.845C40.478 71.485 41.128 71.305 41.848 71.305C42.328 71.305 42.753 71.41 43.123 71.62C43.493 71.82 43.778 72.09 43.978 72.43L44.158 71.455H45.493ZM41.983 72.925C41.363 72.925 40.868 73.16 40.498 73.63C40.128 74.1 39.943 74.715 39.943 75.475C39.943 76.125 40.083 76.63 40.363 76.99C40.643 77.35 41.028 77.53 41.518 77.53C41.918 77.53 42.278 77.415 42.598 77.185C42.928 76.955 43.188 76.635 43.378 76.225C43.568 75.815 43.663 75.345 43.663 74.815C43.663 74.225 43.513 73.765 43.213 73.435C42.913 73.095 42.503 72.925 41.983 72.925ZM47.4364 79V71.425H49.2664L49.1764 73.285C49.4864 72.595 49.8864 72.095 50.3764 71.785C50.8764 71.465 51.4114 71.305 51.9814 71.305C52.5314 71.305 53.0164 71.455 53.4364 71.755C53.8564 72.055 54.1564 72.525 54.3364 73.165C54.6564 72.535 55.0764 72.07 55.5964 71.77C56.1264 71.46 56.6714 71.305 57.2314 71.305C58.0714 71.305 58.7064 71.6 59.1364 72.19C59.5764 72.77 59.7914 73.605 59.7814 74.695L59.7514 79H57.9214L57.9514 74.755C57.9514 74.205 57.8514 73.78 57.6514 73.48C57.4514 73.17 57.1414 73.015 56.7214 73.015C56.4314 73.015 56.1514 73.11 55.8814 73.3C55.6214 73.48 55.3864 73.795 55.1764 74.245C54.9764 74.695 54.8164 75.31 54.6964 76.09C54.5764 76.86 54.5114 77.83 54.5014 79H52.6864V74.755C52.6864 74.205 52.5914 73.78 52.4014 73.48C52.2114 73.17 51.9064 73.015 51.4864 73.015C51.1964 73.015 50.9164 73.11 50.6464 73.3C50.3864 73.48 50.1514 73.795 49.9414 74.245C49.7414 74.695 49.5764 75.31 49.4464 76.09C49.3264 76.86 49.2614 77.83 49.2514 79H47.4364ZM68.7108 71.455V79H66.8508L66.9108 77.68C66.6408 78.14 66.2858 78.5 65.8458 78.76C65.4158 79.01 64.9208 79.135 64.3608 79.135C63.7008 79.135 63.1408 78.985 62.6808 78.685C62.2208 78.375 61.8708 77.95 61.6308 77.41C61.3908 76.87 61.2708 76.25 61.2708 75.55C61.2708 74.71 61.4358 73.975 61.7658 73.345C62.0958 72.705 62.5458 72.205 63.1158 71.845C63.6958 71.485 64.3458 71.305 65.0658 71.305C65.5458 71.305 65.9708 71.41 66.3408 71.62C66.7108 71.82 66.9958 72.09 67.1958 72.43L67.3758 71.455H68.7108ZM65.2008 72.925C64.5808 72.925 64.0858 73.16 63.7158 73.63C63.3458 74.1 63.1608 74.715 63.1608 75.475C63.1608 76.125 63.3008 76.63 63.5808 76.99C63.8608 77.35 64.2458 77.53 64.7358 77.53C65.1358 77.53 65.4958 77.415 65.8158 77.185C66.1458 76.955 66.4058 76.635 66.5958 76.225C66.7858 75.815 66.8808 75.345 66.8808 74.815C66.8808 74.225 66.7308 73.765 66.4308 73.435C66.1308 73.095 65.7208 72.925 65.2008 72.925ZM70.1292 79V77.635L73.8642 72.955H70.2792V71.425H76.1592V72.745L72.4242 77.47H76.1442V79H70.1292ZM79.369 71.425V79H77.539V71.425H79.369ZM78.454 70.225C78.094 70.225 77.809 70.115 77.599 69.895C77.389 69.675 77.284 69.41 77.284 69.1C77.284 68.79 77.389 68.525 77.599 68.305C77.809 68.085 78.094 67.975 78.454 67.975C78.814 67.975 79.099 68.085 79.309 68.305C79.519 68.525 79.624 68.79 79.624 69.1C79.624 69.41 79.519 69.675 79.309 69.895C79.099 70.115 78.814 70.225 78.454 70.225ZM81.3183 79V71.425H83.1483L83.0583 73.33C83.3483 72.68 83.7433 72.18 84.2433 71.83C84.7433 71.48 85.3133 71.305 85.9533 71.305C86.8033 71.305 87.4433 71.6 87.8733 72.19C88.3133 72.77 88.5283 73.605 88.5183 74.695L88.4883 79H86.6583L86.6883 74.845C86.6983 74.255 86.6033 73.805 86.4033 73.495C86.2133 73.175 85.9033 73.015 85.4733 73.015C85.1433 73.015 84.8383 73.11 84.5583 73.3C84.2783 73.49 84.0333 73.815 83.8233 74.275C83.6133 74.725 83.4483 75.34 83.3283 76.12C83.2083 76.89 83.1433 77.85 83.1333 79H81.3183ZM93.0863 82.15C92.6463 82.15 92.1713 82.105 91.6613 82.015C91.1613 81.925 90.7463 81.775 90.4163 81.565L90.8663 79.975C91.1963 80.145 91.5513 80.28 91.9313 80.38C92.3213 80.48 92.7363 80.53 93.1763 80.53C94.0663 80.53 94.6963 80.32 95.0663 79.9C95.4363 79.48 95.6413 78.82 95.6813 77.92L95.7113 77.455C95.4313 77.925 95.0763 78.285 94.6463 78.535C94.2263 78.775 93.7313 78.895 93.1613 78.895C92.4813 78.895 91.9013 78.75 91.4213 78.46C90.9513 78.17 90.5963 77.765 90.3563 77.245C90.1163 76.725 89.9963 76.13 89.9963 75.46C89.9963 74.65 90.1563 73.935 90.4763 73.315C90.8063 72.685 91.2563 72.195 91.8263 71.845C92.4063 71.485 93.0713 71.305 93.8213 71.305C94.3213 71.305 94.7563 71.41 95.1263 71.62C95.4963 71.82 95.7813 72.09 95.9813 72.43L96.1613 71.455H97.4963V77.695C97.4963 79.185 97.1063 80.3 96.3263 81.04C95.5463 81.78 94.4663 82.15 93.0863 82.15ZM93.9563 72.925C93.3263 72.925 92.8213 73.15 92.4413 73.6C92.0713 74.05 91.8863 74.63 91.8863 75.34C91.8863 75.96 92.0313 76.44 92.3213 76.78C92.6113 77.12 93.0063 77.29 93.5063 77.29C93.9163 77.29 94.2813 77.18 94.6013 76.96C94.9313 76.73 95.1913 76.42 95.3813 76.03C95.5713 75.64 95.6663 75.2 95.6663 74.71C95.6663 74.15 95.5113 73.715 95.2013 73.405C94.8913 73.085 94.4763 72.925 93.9563 72.925ZM103.1 82V71.425H104.945L104.885 72.775C105.155 72.305 105.505 71.945 105.935 71.695C106.365 71.435 106.865 71.305 107.435 71.305C108.105 71.305 108.67 71.46 109.13 71.77C109.59 72.08 109.94 72.505 110.18 73.045C110.42 73.585 110.54 74.2 110.54 74.89C110.54 75.73 110.375 76.47 110.045 77.11C109.715 77.75 109.26 78.25 108.68 78.61C108.11 78.96 107.46 79.135 106.73 79.135C106.35 79.135 106.005 79.07 105.695 78.94C105.385 78.81 105.125 78.635 104.915 78.415L104.93 79V82H103.1ZM106.595 77.53C107.225 77.53 107.725 77.29 108.095 76.81C108.465 76.33 108.65 75.71 108.65 74.95C108.65 74.31 108.51 73.815 108.23 73.465C107.95 73.105 107.565 72.925 107.075 72.925C106.665 72.925 106.3 73.04 105.98 73.27C105.66 73.49 105.405 73.805 105.215 74.215C105.025 74.615 104.93 75.08 104.93 75.61C104.93 76.2 105.08 76.67 105.38 77.02C105.68 77.36 106.085 77.53 106.595 77.53ZM116.984 73.195C116.784 73.125 116.529 73.09 116.219 73.09C115.679 73.09 115.244 73.29 114.914 73.69C114.584 74.08 114.339 74.71 114.179 75.58C114.029 76.44 113.954 77.58 113.954 79H112.139V74.11L112.124 71.425H113.954L113.864 73.54C114.124 72.73 114.484 72.155 114.944 71.815C115.414 71.475 115.914 71.305 116.444 71.305C116.604 71.305 116.754 71.315 116.894 71.335C117.034 71.355 117.164 71.385 117.284 71.425L116.984 73.195ZM121.45 71.305C122.58 71.305 123.465 71.645 124.105 72.325C124.755 72.995 125.08 73.905 125.08 75.055C125.08 75.835 124.915 76.535 124.585 77.155C124.265 77.765 123.81 78.25 123.22 78.61C122.63 78.96 121.945 79.135 121.165 79.135C120.035 79.135 119.145 78.8 118.495 78.13C117.855 77.46 117.535 76.545 117.535 75.385C117.535 74.605 117.695 73.91 118.015 73.3C118.345 72.68 118.8 72.195 119.38 71.845C119.97 71.485 120.66 71.305 121.45 71.305ZM121.225 77.53C121.815 77.53 122.29 77.305 122.65 76.855C123.01 76.405 123.19 75.805 123.19 75.055C123.19 74.375 123.03 73.85 122.71 73.48C122.4 73.11 121.97 72.925 121.42 72.925C120.81 72.925 120.325 73.15 119.965 73.6C119.605 74.05 119.425 74.645 119.425 75.385C119.425 76.065 119.58 76.595 119.89 76.975C120.21 77.345 120.655 77.53 121.225 77.53ZM133.75 67.9V79H131.89L131.95 77.68C131.68 78.15 131.33 78.51 130.9 78.76C130.47 79.01 129.97 79.135 129.4 79.135C128.74 79.135 128.18 78.985 127.72 78.685C127.26 78.375 126.91 77.95 126.67 77.41C126.43 76.87 126.31 76.25 126.31 75.55C126.31 74.71 126.475 73.975 126.805 73.345C127.135 72.705 127.585 72.205 128.155 71.845C128.735 71.485 129.385 71.305 130.105 71.305C130.485 71.305 130.83 71.37 131.14 71.5C131.46 71.63 131.725 71.81 131.935 72.04L131.92 71.425V67.9H133.75ZM130.24 72.925C129.62 72.925 129.125 73.16 128.755 73.63C128.385 74.1 128.2 74.715 128.2 75.475C128.2 76.125 128.34 76.63 128.62 76.99C128.9 77.35 129.285 77.53 129.775 77.53C130.175 77.53 130.535 77.415 130.855 77.185C131.185 76.955 131.445 76.635 131.635 76.225C131.825 75.815 131.92 75.345 131.92 74.815C131.92 74.225 131.77 73.765 131.47 73.435C131.17 73.095 130.76 72.925 130.24 72.925ZM138.108 79.135C137.268 79.135 136.633 78.85 136.203 78.28C135.783 77.71 135.578 76.92 135.588 75.91L135.618 71.425H137.448L137.418 75.745C137.408 76.265 137.498 76.675 137.688 76.975C137.878 77.275 138.178 77.425 138.588 77.425C138.908 77.425 139.203 77.33 139.473 77.14C139.753 76.95 139.993 76.63 140.193 76.18C140.393 75.72 140.548 75.105 140.658 74.335C140.778 73.555 140.838 72.585 140.838 71.425H142.608V79H140.763L140.868 77.275C140.568 77.885 140.178 78.35 139.698 78.67C139.228 78.98 138.698 79.135 138.108 79.135ZM147.931 79.135C146.781 79.135 145.871 78.805 145.201 78.145C144.531 77.475 144.196 76.545 144.196 75.355C144.196 74.555 144.361 73.85 144.691 73.24C145.021 72.63 145.481 72.155 146.071 71.815C146.661 71.475 147.341 71.305 148.111 71.305C148.751 71.305 149.311 71.43 149.791 71.68C150.271 71.93 150.661 72.32 150.961 72.85L149.656 73.84C149.466 73.52 149.246 73.29 148.996 73.15C148.756 73.01 148.461 72.94 148.111 72.94C147.521 72.94 147.036 73.16 146.656 73.6C146.286 74.04 146.101 74.62 146.101 75.34C146.101 76.04 146.266 76.58 146.596 76.96C146.936 77.33 147.421 77.515 148.051 77.515C148.381 77.515 148.686 77.44 148.966 77.29C149.256 77.14 149.496 76.905 149.686 76.585L150.961 77.605C150.621 78.155 150.191 78.55 149.671 78.79C149.151 79.02 148.571 79.135 147.931 79.135ZM155.236 79.135C154.326 79.135 153.616 78.885 153.106 78.385C152.606 77.885 152.361 77.23 152.371 76.42L152.431 72.955H151.141V71.425H152.461L152.476 69.865H154.306L154.276 71.425H156.751V72.955H154.261L154.216 76.225C154.206 76.635 154.306 76.96 154.516 77.2C154.736 77.43 155.061 77.545 155.491 77.545C155.721 77.545 155.936 77.515 156.136 77.455C156.336 77.395 156.546 77.285 156.766 77.125L157.306 78.535C157.076 78.735 156.781 78.885 156.421 78.985C156.061 79.085 155.666 79.135 155.236 79.135ZM160.76 79.135C159.72 79.135 158.925 78.94 158.375 78.55C157.825 78.15 157.505 77.595 157.415 76.885L158.96 76.51C159.02 76.89 159.195 77.185 159.485 77.395C159.775 77.595 160.19 77.695 160.73 77.695C161.17 77.695 161.5 77.625 161.72 77.485C161.95 77.345 162.065 77.155 162.065 76.915C162.065 76.675 161.94 76.49 161.69 76.36C161.45 76.23 161.075 76.115 160.565 76.015C159.995 75.905 159.505 75.765 159.095 75.595C158.695 75.425 158.385 75.195 158.165 74.905C157.955 74.605 157.85 74.215 157.85 73.735C157.85 73.275 157.98 72.865 158.24 72.505C158.5 72.135 158.855 71.845 159.305 71.635C159.765 71.415 160.29 71.305 160.88 71.305C161.67 71.305 162.315 71.49 162.815 71.86C163.325 72.23 163.63 72.705 163.73 73.285L162.215 73.69C162.145 73.4 161.995 73.175 161.765 73.015C161.535 72.845 161.225 72.76 160.835 72.76C160.445 72.76 160.145 72.84 159.935 73C159.735 73.16 159.635 73.36 159.635 73.6C159.635 73.84 159.75 74.03 159.98 74.17C160.22 74.3 160.625 74.425 161.195 74.545C161.725 74.655 162.185 74.795 162.575 74.965C162.975 75.125 163.29 75.35 163.52 75.64C163.75 75.92 163.865 76.3 163.865 76.78C163.865 77.25 163.73 77.665 163.46 78.025C163.2 78.375 162.835 78.65 162.365 78.85C161.895 79.04 161.36 79.135 160.76 79.135ZM165.991 79.135C165.601 79.135 165.291 79.015 165.061 78.775C164.831 78.535 164.716 78.24 164.716 77.89C164.716 77.54 164.831 77.245 165.061 77.005C165.291 76.765 165.601 76.645 165.991 76.645C166.381 76.645 166.691 76.765 166.921 77.005C167.151 77.245 167.266 77.54 167.266 77.89C167.266 78.24 167.151 78.535 166.921 78.775C166.691 79.015 166.381 79.135 165.991 79.135ZM175.823 79.135C174.573 79.135 173.598 78.855 172.898 78.295C172.198 77.735 171.798 76.915 171.698 75.835L173.528 75.565C173.708 76.845 174.503 77.485 175.913 77.485C176.523 77.485 176.998 77.365 177.338 77.125C177.678 76.875 177.848 76.53 177.848 76.09C177.848 75.69 177.678 75.39 177.338 75.19C176.998 74.98 176.453 74.785 175.703 74.605C175.003 74.435 174.403 74.235 173.903 74.005C173.403 73.765 173.018 73.445 172.748 73.045C172.488 72.645 172.358 72.115 172.358 71.455C172.358 70.825 172.518 70.265 172.838 69.775C173.168 69.285 173.618 68.9 174.188 68.62C174.758 68.34 175.418 68.2 176.168 68.2C177.158 68.2 177.968 68.46 178.598 68.98C179.228 69.5 179.598 70.215 179.708 71.125L177.998 71.41C177.788 70.37 177.148 69.85 176.078 69.85C175.558 69.85 175.133 69.985 174.803 70.255C174.483 70.525 174.323 70.88 174.323 71.32C174.323 71.76 174.483 72.1 174.803 72.34C175.123 72.57 175.668 72.775 176.438 72.955C177.128 73.115 177.723 73.305 178.223 73.525C178.723 73.735 179.108 74.03 179.378 74.41C179.658 74.79 179.798 75.31 179.798 75.97C179.798 76.59 179.628 77.14 179.288 77.62C178.958 78.09 178.493 78.46 177.893 78.73C177.303 79 176.613 79.135 175.823 79.135ZM184.792 79.135C183.972 79.135 183.262 78.985 182.662 78.685C182.072 78.375 181.617 77.935 181.297 77.365C180.977 76.795 180.817 76.115 180.817 75.325C180.817 74.535 180.982 73.84 181.312 73.24C181.642 72.63 182.087 72.155 182.647 71.815C183.217 71.475 183.862 71.305 184.582 71.305C185.752 71.305 186.612 71.705 187.162 72.505C187.722 73.295 187.917 74.39 187.747 75.79H182.677C182.717 76.32 182.932 76.745 183.322 77.065C183.712 77.385 184.247 77.545 184.927 77.545C185.247 77.545 185.567 77.475 185.887 77.335C186.217 77.195 186.497 76.98 186.727 76.69L187.792 77.77C187.452 78.2 187.037 78.535 186.547 78.775C186.067 79.015 185.482 79.135 184.792 79.135ZM184.612 72.685C184.102 72.685 183.682 72.845 183.352 73.165C183.022 73.485 182.812 73.915 182.722 74.455H186.172C186.192 73.835 186.057 73.385 185.767 73.105C185.477 72.825 185.092 72.685 184.612 72.685ZM192.458 79.135C191.548 79.135 190.838 78.885 190.328 78.385C189.828 77.885 189.583 77.23 189.593 76.42L189.653 72.955H188.363V71.425H189.683L189.698 69.865H191.528L191.498 71.425H193.973V72.955H191.483L191.438 76.225C191.428 76.635 191.528 76.96 191.738 77.2C191.958 77.43 192.283 77.545 192.713 77.545C192.943 77.545 193.158 77.515 193.358 77.455C193.558 77.395 193.768 77.285 193.988 77.125L194.528 78.535C194.298 78.735 194.003 78.885 193.643 78.985C193.283 79.085 192.888 79.135 192.458 79.135ZM202.185 79.135C201.275 79.135 200.565 78.885 200.055 78.385C199.555 77.885 199.31 77.23 199.32 76.42L199.38 72.955H198.09V71.425H199.41L199.425 69.865H201.255L201.225 71.425H203.7V72.955H201.21L201.165 76.225C201.155 76.635 201.255 76.96 201.465 77.2C201.685 77.43 202.01 77.545 202.44 77.545C202.67 77.545 202.885 77.515 203.085 77.455C203.285 77.395 203.495 77.285 203.715 77.125L204.255 78.535C204.025 78.735 203.73 78.885 203.37 78.985C203.01 79.085 202.615 79.135 202.185 79.135ZM205.054 79V67.9H206.884L206.899 71.425L206.794 73.315C207.094 72.675 207.489 72.18 207.979 71.83C208.479 71.48 209.049 71.305 209.689 71.305C210.539 71.305 211.179 71.6 211.609 72.19C212.049 72.77 212.264 73.605 212.254 74.695L212.224 79H210.394L210.424 74.845C210.434 74.255 210.339 73.805 210.139 73.495C209.949 73.175 209.639 73.015 209.209 73.015C208.879 73.015 208.574 73.11 208.294 73.3C208.014 73.49 207.769 73.815 207.559 74.275C207.349 74.725 207.184 75.34 207.064 76.12C206.944 76.89 206.879 77.85 206.869 79H205.054ZM217.707 79.135C216.887 79.135 216.177 78.985 215.577 78.685C214.987 78.375 214.532 77.935 214.212 77.365C213.892 76.795 213.732 76.115 213.732 75.325C213.732 74.535 213.897 73.84 214.227 73.24C214.557 72.63 215.002 72.155 215.562 71.815C216.132 71.475 216.777 71.305 217.497 71.305C218.667 71.305 219.527 71.705 220.077 72.505C220.637 73.295 220.832 74.39 220.662 75.79H215.592C215.632 76.32 215.847 76.745 216.237 77.065C216.627 77.385 217.162 77.545 217.842 77.545C218.162 77.545 218.482 77.475 218.802 77.335C219.132 77.195 219.412 76.98 219.642 76.69L220.707 77.77C220.367 78.2 219.952 78.535 219.462 78.775C218.982 79.015 218.397 79.135 217.707 79.135ZM217.527 72.685C217.017 72.685 216.597 72.845 216.267 73.165C215.937 73.485 215.727 73.915 215.637 74.455H219.087C219.107 73.835 218.972 73.385 218.682 73.105C218.392 72.825 218.007 72.685 217.527 72.685ZM225.884 79V71.425H227.714L227.624 73.33C227.914 72.68 228.309 72.18 228.809 71.83C229.309 71.48 229.879 71.305 230.519 71.305C231.369 71.305 232.009 71.6 232.439 72.19C232.879 72.77 233.094 73.605 233.084 74.695L233.054 79H231.224L231.254 74.845C231.264 74.255 231.169 73.805 230.969 73.495C230.779 73.175 230.469 73.015 230.039 73.015C229.709 73.015 229.404 73.11 229.124 73.3C228.844 73.49 228.599 73.815 228.389 74.275C228.179 74.725 228.014 75.34 227.894 76.12C227.774 76.89 227.709 77.85 227.699 79H225.884ZM238.477 71.305C239.607 71.305 240.492 71.645 241.132 72.325C241.782 72.995 242.107 73.905 242.107 75.055C242.107 75.835 241.942 76.535 241.612 77.155C241.292 77.765 240.837 78.25 240.247 78.61C239.657 78.96 238.972 79.135 238.192 79.135C237.062 79.135 236.172 78.8 235.522 78.13C234.882 77.46 234.562 76.545 234.562 75.385C234.562 74.605 234.722 73.91 235.042 73.3C235.372 72.68 235.827 72.195 236.407 71.845C236.997 71.485 237.687 71.305 238.477 71.305ZM238.252 77.53C238.842 77.53 239.317 77.305 239.677 76.855C240.037 76.405 240.217 75.805 240.217 75.055C240.217 74.375 240.057 73.85 239.737 73.48C239.427 73.11 238.997 72.925 238.447 72.925C237.837 72.925 237.352 73.15 236.992 73.6C236.632 74.05 236.452 74.645 236.452 75.385C236.452 76.065 236.607 76.595 236.917 76.975C237.237 77.345 237.682 77.53 238.252 77.53ZM248.556 73.195C248.356 73.125 248.101 73.09 247.791 73.09C247.251 73.09 246.816 73.29 246.486 73.69C246.156 74.08 245.911 74.71 245.751 75.58C245.601 76.44 245.526 77.58 245.526 79H243.711V74.11L243.696 71.425H245.526L245.436 73.54C245.696 72.73 246.056 72.155 246.516 71.815C246.986 71.475 247.486 71.305 248.016 71.305C248.176 71.305 248.326 71.315 248.466 71.335C248.606 71.355 248.736 71.385 248.856 71.425L248.556 73.195ZM253.63 79.135C252.72 79.135 252.01 78.885 251.5 78.385C251 77.885 250.755 77.23 250.765 76.42L250.825 72.955H249.535V71.425H250.855L250.87 69.865H252.7L252.67 71.425H255.145V72.955H252.655L252.61 76.225C252.6 76.635 252.7 76.96 252.91 77.2C253.13 77.43 253.455 77.545 253.885 77.545C254.115 77.545 254.33 77.515 254.53 77.455C254.73 77.395 254.94 77.285 255.16 77.125L255.7 78.535C255.47 78.735 255.175 78.885 254.815 78.985C254.455 79.085 254.06 79.135 253.63 79.135ZM256.499 79V67.9H258.329L258.344 71.425L258.239 73.315C258.539 72.675 258.934 72.18 259.424 71.83C259.924 71.48 260.494 71.305 261.134 71.305C261.984 71.305 262.624 71.6 263.054 72.19C263.494 72.77 263.709 73.605 263.699 74.695L263.669 79H261.839L261.869 74.845C261.879 74.255 261.784 73.805 261.584 73.495C261.394 73.175 261.084 73.015 260.654 73.015C260.324 73.015 260.019 73.11 259.739 73.3C259.459 73.49 259.214 73.815 259.004 74.275C258.794 74.725 258.629 75.34 258.509 76.12C258.389 76.89 258.324 77.85 258.314 79H256.499ZM58.3019 104.135C57.2619 104.135 56.4669 103.94 55.9169 103.55C55.3669 103.15 55.0469 102.595 54.9569 101.885L56.5019 101.51C56.5619 101.89 56.7369 102.185 57.0269 102.395C57.3169 102.595 57.7319 102.695 58.2719 102.695C58.7119 102.695 59.0419 102.625 59.2619 102.485C59.4919 102.345 59.6069 102.155 59.6069 101.915C59.6069 101.675 59.4819 101.49 59.2319 101.36C58.9919 101.23 58.6169 101.115 58.1069 101.015C57.5369 100.905 57.0469 100.765 56.6369 100.595C56.2369 100.425 55.9269 100.195 55.7069 99.905C55.4969 99.605 55.3919 99.215 55.3919 98.735C55.3919 98.275 55.5219 97.865 55.7819 97.505C56.0419 97.135 56.3969 96.845 56.8469 96.635C57.3069 96.415 57.8319 96.305 58.4219 96.305C59.2119 96.305 59.8569 96.49 60.3569 96.86C60.8669 97.23 61.1719 97.705 61.2719 98.285L59.7569 98.69C59.6869 98.4 59.5369 98.175 59.3069 98.015C59.0769 97.845 58.7669 97.76 58.3769 97.76C57.9869 97.76 57.6869 97.84 57.4769 98C57.2769 98.16 57.1769 98.36 57.1769 98.6C57.1769 98.84 57.2919 99.03 57.5219 99.17C57.7619 99.3 58.1669 99.425 58.7369 99.545C59.2669 99.655 59.7269 99.795 60.1169 99.965C60.5169 100.125 60.8319 100.35 61.0619 100.64C61.2919 100.92 61.4069 101.3 61.4069 101.78C61.4069 102.25 61.2719 102.665 61.0019 103.025C60.7419 103.375 60.3769 103.65 59.9069 103.85C59.4369 104.04 58.9019 104.135 58.3019 104.135ZM65.7856 104.135C64.8756 104.135 64.1656 103.885 63.6556 103.385C63.1556 102.885 62.9106 102.23 62.9206 101.42L62.9806 97.955H61.6906V96.425H63.0106L63.0256 94.865H64.8556L64.8256 96.425H67.3006V97.955H64.8106L64.7656 101.225C64.7556 101.635 64.8556 101.96 65.0656 102.2C65.2856 102.43 65.6106 102.545 66.0406 102.545C66.2706 102.545 66.4856 102.515 66.6856 102.455C66.8856 102.395 67.0956 102.285 67.3156 102.125L67.8556 103.535C67.6256 103.735 67.3306 103.885 66.9706 103.985C66.6106 104.085 66.2156 104.135 65.7856 104.135ZM75.5882 96.455V104H73.7282L73.7882 102.68C73.5182 103.14 73.1632 103.5 72.7232 103.76C72.2932 104.01 71.7982 104.135 71.2382 104.135C70.5782 104.135 70.0182 103.985 69.5582 103.685C69.0982 103.375 68.7482 102.95 68.5082 102.41C68.2682 101.87 68.1482 101.25 68.1482 100.55C68.1482 99.71 68.3132 98.975 68.6432 98.345C68.9732 97.705 69.4232 97.205 69.9932 96.845C70.5732 96.485 71.2232 96.305 71.9432 96.305C72.4232 96.305 72.8482 96.41 73.2182 96.62C73.5882 96.82 73.8732 97.09 74.0732 97.43L74.2532 96.455H75.5882ZM72.0782 97.925C71.4582 97.925 70.9632 98.16 70.5932 98.63C70.2232 99.1 70.0382 99.715 70.0382 100.475C70.0382 101.125 70.1782 101.63 70.4582 101.99C70.7382 102.35 71.1232 102.53 71.6132 102.53C72.0132 102.53 72.3732 102.415 72.6932 102.185C73.0232 101.955 73.2832 101.635 73.4732 101.225C73.6632 100.815 73.7582 100.345 73.7582 99.815C73.7582 99.225 73.6082 98.765 73.3082 98.435C73.0082 98.095 72.5982 97.925 72.0782 97.925ZM82.3916 98.195C82.1916 98.125 81.9366 98.09 81.6266 98.09C81.0866 98.09 80.6516 98.29 80.3216 98.69C79.9916 99.08 79.7466 99.71 79.5866 100.58C79.4366 101.44 79.3616 102.58 79.3616 104H77.5466V99.11L77.5316 96.425H79.3616L79.2716 98.54C79.5316 97.73 79.8916 97.155 80.3516 96.815C80.8216 96.475 81.3216 96.305 81.8516 96.305C82.0116 96.305 82.1616 96.315 82.3016 96.335C82.4416 96.355 82.5716 96.385 82.6916 96.425L82.3916 98.195ZM94.3821 96.455V104H92.5221L92.5821 102.68C92.3121 103.14 91.9571 103.5 91.5171 103.76C91.0871 104.01 90.5921 104.135 90.0321 104.135C89.3721 104.135 88.8121 103.985 88.3521 103.685C87.8921 103.375 87.5421 102.95 87.3021 102.41C87.0621 101.87 86.9421 101.25 86.9421 100.55C86.9421 99.71 87.1071 98.975 87.4371 98.345C87.7671 97.705 88.2171 97.205 88.7871 96.845C89.3671 96.485 90.0171 96.305 90.7371 96.305C91.2171 96.305 91.6421 96.41 92.0121 96.62C92.3821 96.82 92.6671 97.09 92.8671 97.43L93.0471 96.455H94.3821ZM90.8721 97.925C90.2521 97.925 89.7571 98.16 89.3871 98.63C89.0171 99.1 88.8321 99.715 88.8321 100.475C88.8321 101.125 88.9721 101.63 89.2521 101.99C89.5321 102.35 89.9171 102.53 90.4071 102.53C90.8071 102.53 91.1671 102.415 91.4871 102.185C91.8171 101.955 92.0771 101.635 92.2671 101.225C92.4571 100.815 92.5521 100.345 92.5521 99.815C92.5521 99.225 92.4021 98.765 92.1021 98.435C91.8021 98.095 91.3921 97.925 90.8721 97.925ZM96.3256 104V96.425H98.1556L98.0656 98.33C98.3556 97.68 98.7506 97.18 99.2506 96.83C99.7506 96.48 100.321 96.305 100.961 96.305C101.811 96.305 102.451 96.6 102.881 97.19C103.321 97.77 103.536 98.605 103.526 99.695L103.496 104H101.666L101.696 99.845C101.706 99.255 101.611 98.805 101.411 98.495C101.221 98.175 100.911 98.015 100.481 98.015C100.151 98.015 99.8456 98.11 99.5656 98.3C99.2856 98.49 99.0406 98.815 98.8306 99.275C98.6206 99.725 98.4556 100.34 98.3356 101.12C98.2156 101.89 98.1506 102.85 98.1406 104H96.3256ZM112.444 92.9V104H110.584L110.644 102.68C110.374 103.15 110.024 103.51 109.594 103.76C109.164 104.01 108.664 104.135 108.094 104.135C107.434 104.135 106.874 103.985 106.414 103.685C105.954 103.375 105.604 102.95 105.364 102.41C105.124 101.87 105.004 101.25 105.004 100.55C105.004 99.71 105.169 98.975 105.499 98.345C105.829 97.705 106.279 97.205 106.849 96.845C107.429 96.485 108.079 96.305 108.799 96.305C109.179 96.305 109.524 96.37 109.834 96.5C110.154 96.63 110.419 96.81 110.629 97.04L110.614 96.425V92.9H112.444ZM108.934 97.925C108.314 97.925 107.819 98.16 107.449 98.63C107.079 99.1 106.894 99.715 106.894 100.475C106.894 101.125 107.034 101.63 107.314 101.99C107.594 102.35 107.979 102.53 108.469 102.53C108.869 102.53 109.229 102.415 109.549 102.185C109.879 101.955 110.139 101.635 110.329 101.225C110.519 100.815 110.614 100.345 110.614 99.815C110.614 99.225 110.464 98.765 110.164 98.435C109.864 98.095 109.454 97.925 108.934 97.925ZM120.225 104.135C119.505 104.135 118.96 103.94 118.59 103.55C118.22 103.16 118.035 102.605 118.035 101.885V92.9H119.865V101.735C119.865 102.275 120.115 102.545 120.615 102.545C120.865 102.545 121.085 102.485 121.275 102.365L121.725 103.7C121.565 103.82 121.35 103.92 121.08 104C120.81 104.09 120.525 104.135 120.225 104.135ZM125.956 104.135C125.136 104.135 124.426 103.985 123.826 103.685C123.236 103.375 122.781 102.935 122.461 102.365C122.141 101.795 121.981 101.115 121.981 100.325C121.981 99.535 122.146 98.84 122.476 98.24C122.806 97.63 123.251 97.155 123.811 96.815C124.381 96.475 125.026 96.305 125.746 96.305C126.916 96.305 127.776 96.705 128.326 97.505C128.886 98.295 129.081 99.39 128.911 100.79H123.841C123.881 101.32 124.096 101.745 124.486 102.065C124.876 102.385 125.411 102.545 126.091 102.545C126.411 102.545 126.731 102.475 127.051 102.335C127.381 102.195 127.661 101.98 127.891 101.69L128.956 102.77C128.616 103.2 128.201 103.535 127.711 103.775C127.231 104.015 126.646 104.135 125.956 104.135ZM125.776 97.685C125.266 97.685 124.846 97.845 124.516 98.165C124.186 98.485 123.976 98.915 123.886 99.455H127.336C127.356 98.835 127.221 98.385 126.931 98.105C126.641 97.825 126.256 97.685 125.776 97.685ZM133.623 104.135C132.713 104.135 132.003 103.885 131.493 103.385C130.993 102.885 130.748 102.23 130.758 101.42L130.818 97.955H129.528V96.425H130.848L130.863 94.865H132.693L132.663 96.425H135.138V97.955H132.648L132.603 101.225C132.593 101.635 132.693 101.96 132.903 102.2C133.123 102.43 133.448 102.545 133.878 102.545C134.108 102.545 134.323 102.515 134.523 102.455C134.723 102.395 134.933 102.285 135.153 102.125L135.693 103.535C135.463 103.735 135.168 103.885 134.808 103.985C134.448 104.085 134.053 104.135 133.623 104.135ZM143.349 104.135C142.439 104.135 141.729 103.885 141.219 103.385C140.719 102.885 140.474 102.23 140.484 101.42L140.544 97.955H139.254V96.425H140.574L140.589 94.865H142.419L142.389 96.425H144.864V97.955H142.374L142.329 101.225C142.319 101.635 142.419 101.96 142.629 102.2C142.849 102.43 143.174 102.545 143.604 102.545C143.834 102.545 144.049 102.515 144.249 102.455C144.449 102.395 144.659 102.285 144.879 102.125L145.419 103.535C145.189 103.735 144.894 103.885 144.534 103.985C144.174 104.085 143.779 104.135 143.349 104.135ZM146.218 104V92.9H148.048L148.063 96.425L147.958 98.315C148.258 97.675 148.653 97.18 149.143 96.83C149.643 96.48 150.213 96.305 150.853 96.305C151.703 96.305 152.343 96.6 152.773 97.19C153.213 97.77 153.428 98.605 153.418 99.695L153.388 104H151.558L151.588 99.845C151.598 99.255 151.503 98.805 151.303 98.495C151.113 98.175 150.803 98.015 150.373 98.015C150.043 98.015 149.738 98.11 149.458 98.3C149.178 98.49 148.933 98.815 148.723 99.275C148.513 99.725 148.348 100.34 148.228 101.12C148.108 101.89 148.043 102.85 148.033 104H146.218ZM158.871 104.135C158.051 104.135 157.341 103.985 156.741 103.685C156.151 103.375 155.696 102.935 155.376 102.365C155.056 101.795 154.896 101.115 154.896 100.325C154.896 99.535 155.061 98.84 155.391 98.24C155.721 97.63 156.166 97.155 156.726 96.815C157.296 96.475 157.941 96.305 158.661 96.305C159.831 96.305 160.691 96.705 161.241 97.505C161.801 98.295 161.996 99.39 161.826 100.79H156.756C156.796 101.32 157.011 101.745 157.401 102.065C157.791 102.385 158.326 102.545 159.006 102.545C159.326 102.545 159.646 102.475 159.966 102.335C160.296 102.195 160.576 101.98 160.806 101.69L161.871 102.77C161.531 103.2 161.116 103.535 160.626 103.775C160.146 104.015 159.561 104.135 158.871 104.135ZM158.691 97.685C158.181 97.685 157.761 97.845 157.431 98.165C157.101 98.485 156.891 98.915 156.801 99.455H160.251C160.271 98.835 160.136 98.385 159.846 98.105C159.556 97.825 159.171 97.685 158.691 97.685ZM163.401 104V96.425H165.231L165.141 98.285C165.451 97.595 165.851 97.095 166.341 96.785C166.841 96.465 167.376 96.305 167.946 96.305C168.496 96.305 168.981 96.455 169.401 96.755C169.821 97.055 170.121 97.525 170.301 98.165C170.621 97.535 171.041 97.07 171.561 96.77C172.091 96.46 172.636 96.305 173.196 96.305C174.036 96.305 174.671 96.6 175.101 97.19C175.541 97.77 175.756 98.605 175.746 99.695L175.716 104H173.886L173.916 99.755C173.916 99.205 173.816 98.78 173.616 98.48C173.416 98.17 173.106 98.015 172.686 98.015C172.396 98.015 172.116 98.11 171.846 98.3C171.586 98.48 171.351 98.795 171.141 99.245C170.941 99.695 170.781 100.31 170.661 101.09C170.541 101.86 170.476 102.83 170.466 104H168.651V99.755C168.651 99.205 168.556 98.78 168.366 98.48C168.176 98.17 167.871 98.015 167.451 98.015C167.161 98.015 166.881 98.11 166.611 98.3C166.351 98.48 166.116 98.795 165.906 99.245C165.706 99.695 165.541 100.31 165.411 101.09C165.291 101.86 165.226 102.83 165.216 104H163.401ZM181.618 104V97.955H180.178V96.425H181.618V96.02C181.618 95.35 181.753 94.775 182.023 94.295C182.303 93.805 182.678 93.425 183.148 93.155C183.628 92.885 184.178 92.75 184.798 92.75C185.538 92.75 186.128 92.935 186.568 93.305C187.018 93.665 187.288 94.21 187.378 94.94L185.818 95.12C185.788 94.86 185.678 94.66 185.488 94.52C185.298 94.37 185.053 94.295 184.753 94.295C184.343 94.295 184.018 94.43 183.778 94.7C183.548 94.97 183.433 95.355 183.433 95.855V96.425H185.683V97.955H183.463V104H181.618ZM189.895 96.305C191.025 96.305 191.91 96.645 192.55 97.325C193.2 97.995 193.525 98.905 193.525 100.055C193.525 100.835 193.36 101.535 193.03 102.155C192.71 102.765 192.255 103.25 191.665 103.61C191.075 103.96 190.39 104.135 189.61 104.135C188.48 104.135 187.59 103.8 186.94 103.13C186.3 102.46 185.98 101.545 185.98 100.385C185.98 99.605 186.14 98.91 186.46 98.3C186.79 97.68 187.245 97.195 187.825 96.845C188.415 96.485 189.105 96.305 189.895 96.305ZM189.67 102.53C190.26 102.53 190.735 102.305 191.095 101.855C191.455 101.405 191.635 100.805 191.635 100.055C191.635 99.375 191.475 98.85 191.155 98.48C190.845 98.11 190.415 97.925 189.865 97.925C189.255 97.925 188.77 98.15 188.41 98.6C188.05 99.05 187.87 99.645 187.87 100.385C187.87 101.065 188.025 101.595 188.335 101.975C188.655 102.345 189.1 102.53 189.67 102.53ZM197.305 104.135C196.585 104.135 196.04 103.94 195.67 103.55C195.3 103.16 195.115 102.605 195.115 101.885V92.9H196.945V101.735C196.945 102.275 197.195 102.545 197.695 102.545C197.945 102.545 198.165 102.485 198.355 102.365L198.805 103.7C198.645 103.82 198.43 103.92 198.16 104C197.89 104.09 197.605 104.135 197.305 104.135ZM201.611 104.135C200.891 104.135 200.346 103.94 199.976 103.55C199.606 103.16 199.421 102.605 199.421 101.885V92.9H201.251V101.735C201.251 102.275 201.501 102.545 202.001 102.545C202.251 102.545 202.471 102.485 202.661 102.365L203.111 103.7C202.951 103.82 202.736 103.92 202.466 104C202.196 104.09 201.911 104.135 201.611 104.135ZM207.283 96.305C208.413 96.305 209.298 96.645 209.938 97.325C210.588 97.995 210.913 98.905 210.913 100.055C210.913 100.835 210.748 101.535 210.418 102.155C210.098 102.765 209.643 103.25 209.053 103.61C208.463 103.96 207.778 104.135 206.998 104.135C205.868 104.135 204.978 103.8 204.328 103.13C203.688 102.46 203.368 101.545 203.368 100.385C203.368 99.605 203.528 98.91 203.848 98.3C204.178 97.68 204.633 97.195 205.213 96.845C205.803 96.485 206.493 96.305 207.283 96.305ZM207.058 102.53C207.648 102.53 208.123 102.305 208.483 101.855C208.843 101.405 209.023 100.805 209.023 100.055C209.023 99.375 208.863 98.85 208.543 98.48C208.233 98.11 207.803 97.925 207.253 97.925C206.643 97.925 206.158 98.15 205.798 98.6C205.438 99.05 205.258 99.645 205.258 100.385C205.258 101.065 205.413 101.595 205.723 101.975C206.043 102.345 206.488 102.53 207.058 102.53ZM222.513 96.425H224.328L221.643 104H219.393L217.908 98.945L216.138 104H213.888L211.503 96.425H213.408L215.088 102.215L217.068 96.425H218.868L220.533 102.26L222.513 96.425ZM230.709 96.425V104H228.879V96.425H230.709ZM229.794 95.225C229.434 95.225 229.149 95.115 228.939 94.895C228.729 94.675 228.624 94.41 228.624 94.1C228.624 93.79 228.729 93.525 228.939 93.305C229.149 93.085 229.434 92.975 229.794 92.975C230.154 92.975 230.439 93.085 230.649 93.305C230.859 93.525 230.964 93.79 230.964 94.1C230.964 94.41 230.859 94.675 230.649 94.895C230.439 95.115 230.154 95.225 229.794 95.225ZM235.869 104.135C234.959 104.135 234.249 103.885 233.739 103.385C233.239 102.885 232.994 102.23 233.004 101.42L233.064 97.955H231.774V96.425H233.094L233.109 94.865H234.939L234.909 96.425H237.384V97.955H234.894L234.849 101.225C234.839 101.635 234.939 101.96 235.149 102.2C235.369 102.43 235.694 102.545 236.124 102.545C236.354 102.545 236.569 102.515 236.769 102.455C236.969 102.395 237.179 102.285 237.399 102.125L237.939 103.535C237.709 103.735 237.414 103.885 237.054 103.985C236.694 104.085 236.299 104.135 235.869 104.135ZM239.841 104.135C239.451 104.135 239.141 104.015 238.911 103.775C238.681 103.535 238.566 103.24 238.566 102.89C238.566 102.54 238.681 102.245 238.911 102.005C239.141 101.765 239.451 101.645 239.841 101.645C240.231 101.645 240.541 101.765 240.771 102.005C241.001 102.245 241.116 102.54 241.116 102.89C241.116 103.24 241.001 103.535 240.771 103.775C240.541 104.015 240.231 104.135 239.841 104.135ZM244.219 97.37C244.359 97.04 244.464 96.74 244.534 96.47C244.614 96.19 244.654 95.93 244.654 95.69C244.654 95.43 244.619 95.21 244.549 95.03C244.479 94.84 244.409 94.655 244.339 94.475C244.279 94.295 244.249 94.085 244.249 93.845C244.249 93.535 244.359 93.275 244.579 93.065C244.809 92.855 245.104 92.75 245.464 92.75C245.854 92.75 246.154 92.87 246.364 93.11C246.584 93.35 246.694 93.685 246.694 94.115C246.694 94.425 246.624 94.775 246.484 95.165C246.354 95.555 246.169 95.945 245.929 96.335C245.699 96.725 245.439 97.07 245.149 97.37H244.219ZM241.219 97.37C241.359 97.04 241.464 96.74 241.534 96.47C241.614 96.19 241.654 95.93 241.654 95.69C241.654 95.43 241.619 95.21 241.549 95.03C241.479 94.84 241.409 94.655 241.339 94.475C241.279 94.295 241.249 94.085 241.249 93.845C241.249 93.535 241.359 93.275 241.579 93.065C241.809 92.855 242.104 92.75 242.464 92.75C242.854 92.75 243.154 92.87 243.364 93.11C243.584 93.35 243.694 93.685 243.694 94.115C243.694 94.425 243.624 94.775 243.484 95.165C243.354 95.555 243.169 95.945 242.929 96.335C242.699 96.725 242.439 97.07 242.149 97.37H241.219Z" fill="white"/>
<path d="M103.01 21L108.554 8.22H111.02L116.348 21H113.36L112.334 18.39H107.06L105.998 21H103.01ZM108.068 15.942H111.362L109.742 11.82L108.068 15.942ZM126.073 7.68V21H123.301L123.391 19.65C122.731 20.67 121.753 21.18 120.457 21.18C119.641 21.18 118.945 20.994 118.369 20.622C117.793 20.25 117.355 19.734 117.055 19.074C116.755 18.414 116.605 17.658 116.605 16.806C116.605 15.786 116.815 14.892 117.235 14.124C117.655 13.356 118.219 12.762 118.927 12.342C119.635 11.91 120.427 11.694 121.303 11.694C121.711 11.694 122.089 11.754 122.437 11.874C122.785 11.994 123.085 12.162 123.337 12.378L123.319 11.838V7.68H126.073ZM121.573 14.088C120.913 14.088 120.391 14.334 120.007 14.826C119.635 15.318 119.449 15.948 119.449 16.716C119.449 17.376 119.593 17.886 119.881 18.246C120.181 18.606 120.583 18.786 121.087 18.786C121.699 18.786 122.221 18.534 122.653 18.03C123.097 17.526 123.319 16.866 123.319 16.05C123.319 15.438 123.163 14.958 122.851 14.61C122.539 14.262 122.113 14.088 121.573 14.088ZM132.718 21.18C131.698 21.18 130.816 20.994 130.072 20.622C129.328 20.238 128.752 19.704 128.344 19.02C127.936 18.324 127.732 17.502 127.732 16.554C127.732 15.594 127.936 14.748 128.344 14.016C128.764 13.284 129.322 12.714 130.018 12.306C130.726 11.898 131.524 11.694 132.412 11.694C133.42 11.694 134.242 11.922 134.878 12.378C135.514 12.834 135.952 13.482 136.192 14.322C136.444 15.15 136.498 16.116 136.354 17.22H130.54C130.612 17.676 130.852 18.06 131.26 18.372C131.668 18.672 132.226 18.822 132.934 18.822C133.258 18.822 133.6 18.756 133.96 18.624C134.32 18.48 134.626 18.27 134.878 17.994L136.408 19.614C136.012 20.094 135.52 20.478 134.932 20.766C134.356 21.042 133.618 21.18 132.718 21.18ZM132.466 13.692C131.986 13.692 131.578 13.836 131.242 14.124C130.918 14.412 130.702 14.814 130.594 15.33H134.032C134.044 14.766 133.906 14.352 133.618 14.088C133.342 13.824 132.958 13.692 132.466 13.692ZM138.043 21V11.838H140.779L140.653 13.8C141.025 13.128 141.499 12.612 142.075 12.252C142.663 11.88 143.317 11.694 144.037 11.694C145.129 11.694 145.945 12.066 146.485 12.81C147.025 13.542 147.289 14.598 147.277 15.978L147.241 21H144.487L144.523 16.176C144.535 15.552 144.439 15.078 144.235 14.754C144.043 14.418 143.731 14.25 143.299 14.25C142.939 14.25 142.609 14.358 142.309 14.574C142.009 14.778 141.745 15.132 141.517 15.636C141.301 16.14 141.127 16.83 140.995 17.706C140.863 18.582 140.791 19.68 140.779 21H138.043ZM152.299 21L157.843 8.22H160.309L165.637 21H162.649L161.623 18.39H156.349L155.287 21H152.299ZM157.357 15.942H160.651L159.031 11.82L157.357 15.942ZM169.224 21.18C168.3 21.18 167.586 20.928 167.082 20.424C166.59 19.908 166.344 19.164 166.344 18.192V7.68H169.098V17.994C169.098 18.546 169.356 18.822 169.872 18.822C170.148 18.822 170.382 18.756 170.574 18.624L171.24 20.586C171.036 20.754 170.754 20.892 170.394 21C170.034 21.12 169.644 21.18 169.224 21.18ZM174.691 21.18C173.767 21.18 173.053 20.928 172.549 20.424C172.057 19.908 171.811 19.164 171.811 18.192V7.68H174.565V17.994C174.565 18.546 174.823 18.822 175.339 18.822C175.615 18.822 175.849 18.756 176.041 18.624L176.707 20.586C176.503 20.754 176.221 20.892 175.861 21C175.501 21.12 175.111 21.18 174.691 21.18ZM186.278 11.874V21H183.506L183.596 19.632C182.936 20.664 181.958 21.18 180.662 21.18C179.846 21.18 179.15 20.994 178.574 20.622C177.998 20.25 177.56 19.734 177.26 19.074C176.96 18.414 176.81 17.658 176.81 16.806C176.81 15.786 177.02 14.892 177.44 14.124C177.86 13.356 178.424 12.762 179.132 12.342C179.84 11.91 180.632 11.694 181.508 11.694C182.084 11.694 182.594 11.814 183.038 12.054C183.482 12.282 183.824 12.588 184.064 12.972L184.298 11.874H186.278ZM181.778 14.088C181.118 14.088 180.596 14.334 180.212 14.826C179.84 15.318 179.654 15.948 179.654 16.716C179.654 17.376 179.798 17.886 180.086 18.246C180.386 18.606 180.788 18.786 181.292 18.786C181.904 18.786 182.426 18.534 182.858 18.03C183.302 17.526 183.524 16.866 183.524 16.05C183.524 15.438 183.368 14.958 183.056 14.61C182.744 14.262 182.318 14.088 181.778 14.088ZM188.405 21V11.838H191.141L191.015 13.8C191.387 13.128 191.861 12.612 192.437 12.252C193.025 11.88 193.679 11.694 194.399 11.694C195.491 11.694 196.307 12.066 196.847 12.81C197.387 13.542 197.651 14.598 197.639 15.978L197.603 21H194.849L194.885 16.176C194.897 15.552 194.801 15.078 194.597 14.754C194.405 14.418 194.093 14.25 193.661 14.25C193.301 14.25 192.971 14.358 192.671 14.574C192.371 14.778 192.107 15.132 191.879 15.636C191.663 16.14 191.489 16.83 191.357 17.706C191.225 18.582 191.153 19.68 191.141 21H188.405Z" fill="#79C8C7"/>
<path fill-rule="evenodd" clip-rule="evenodd" d="M163 135H179C180.1 135 181 135.9 181 137V153C181 154.1 180.1 155 179 155H163C161.9 155 161 154.1 161 153V137C161 135.9 161.9 135 163 135ZM167 152V143H164V152H167ZM165.5 141.3C164.5 141.3 163.7 140.5 163.7 139.5C163.7 138.5 164.5 137.7 165.5 137.7C166.5 137.7 167.3 138.5 167.3 139.5C167.3 140.5 166.5 141.3 165.5 141.3ZM175 152H178V146.3C178 144.4 176.4 142.8 174.5 142.8C173.6 142.8 172.5 143.4 172 144.2V143H169V152H172V146.7C172 145.9 172.7 145.2 173.5 145.2C174.3 145.2 175 145.9 175 146.7V152Z" fill="#F67E7E"/>
<path d="M145 137.309C144.117 137.701 143.168 137.965 142.172 138.084C143.189 137.475 143.97 136.51 144.337 135.36C143.386 135.924 142.332 136.334 141.21 136.555C140.313 135.598 139.032 135 137.616 135C134.437 135 132.101 137.966 132.819 141.045C128.728 140.84 125.1 138.88 122.671 135.901C121.381 138.114 122.002 141.009 124.194 142.475C123.388 142.449 122.628 142.228 121.965 141.859C121.911 144.14 123.546 146.274 125.914 146.749C125.221 146.937 124.462 146.981 123.69 146.833C124.316 148.789 126.134 150.212 128.29 150.252C126.22 151.875 123.612 152.6 121 152.292C123.179 153.689 125.768 154.504 128.548 154.504C137.69 154.504 142.855 146.783 142.543 139.858C143.505 139.163 144.34 138.296 145 137.309Z" fill="white"/>
</g>
<defs>
<clipPath id="clip0_0_2766">
<rect width="302" height="155" fill="white"/>
</clipPath>
</defs>
</svg>
